ISO-10303-21;
HEADER;
FILE_DESCRIPTION(('FreeCAD Model'),'2;1');
FILE_NAME('Open CASCADE Shape Model','2026-06-18T20:46:16',(''),(''),
  'Open CASCADE STEP processor 7.9','FreeCAD','Unknown');
FILE_SCHEMA(('AUTOMOTIVE_DESIGN { 1 0 10303 214 1 1 1 1 }'));
ENDSEC;
DATA;
#1 = APPLICATION_PROTOCOL_DEFINITION('international standard',
  'automotive_design',2000,#2);
#2 = APPLICATION_CONTEXT(
  'core data for automotive mechanical design processes');
#3 = SHAPE_DEFINITION_REPRESENTATION(#4,#10);
#4 = PRODUCT_DEFINITION_SHAPE('','',#5);
#5 = PRODUCT_DEFINITION('design','',#6,#9);
#6 = PRODUCT_DEFINITION_FORMATION('','',#7);
#7 = PRODUCT('Body','Body','',(#8));
#8 = PRODUCT_CONTEXT('',#2,'mechanical');
#9 = PRODUCT_DEFINITION_CONTEXT('part definition',#2,'design');
#10 = ADVANCED_BREP_SHAPE_REPRESENTATION('',(#11,#15),#1050);
#11 = AXIS2_PLACEMENT_3D('',#12,#13,#14);
#12 = CARTESIAN_POINT('',(0.,0.,0.));
#13 = DIRECTION('',(0.,0.,1.));
#14 = DIRECTION('',(1.,0.,-0.));
#15 = MANIFOLD_SOLID_BREP('',#16);
#16 = CLOSED_SHELL('',(#17,#173,#237,#262,#287,#311,#336,#360,#385,#409,
    #434,#458,#483,#507,#563,#581,#614,#639,#664,#681,#706,#746,#763,
    #775,#799,#823,#840,#871,#895,#919,#936,#970,#982,#1007,#1032,#1041)
  );
#17 = ADVANCED_FACE('',(#18,#134),#168,.T.);
#18 = FACE_BOUND('',#19,.T.);
#19 = EDGE_LOOP('',(#20,#30,#38,#46,#54,#62,#70,#78,#87,#95,#103,#111,
    #119,#127));
#20 = ORIENTED_EDGE('',*,*,#21,.F.);
#21 = EDGE_CURVE('',#22,#24,#26,.T.);
#22 = VERTEX_POINT('',#23);
#23 = CARTESIAN_POINT('',(-27.375,-5.05,5.));
#24 = VERTEX_POINT('',#25);
#25 = CARTESIAN_POINT('',(-25.475,-5.05,5.));
#26 = LINE('',#27,#28);
#27 = CARTESIAN_POINT('',(-28.875,-5.05,5.));
#28 = VECTOR('',#29,1.);
#29 = DIRECTION('',(1.,0.,0.));
#30 = ORIENTED_EDGE('',*,*,#31,.T.);
#31 = EDGE_CURVE('',#22,#32,#34,.T.);
#32 = VERTEX_POINT('',#33);
#33 = CARTESIAN_POINT('',(-27.375,-12.95,5.));
#34 = LINE('',#35,#36);
#35 = CARTESIAN_POINT('',(-27.375,-5.05,5.));
#36 = VECTOR('',#37,1.);
#37 = DIRECTION('',(0.,-1.,0.));
#38 = ORIENTED_EDGE('',*,*,#39,.T.);
#39 = EDGE_CURVE('',#32,#40,#42,.T.);
#40 = VERTEX_POINT('',#41);
#41 = CARTESIAN_POINT('',(42.875,-12.95,5.));
#42 = LINE('',#43,#44);
#43 = CARTESIAN_POINT('',(-28.875,-12.95,5.));
#44 = VECTOR('',#45,1.);
#45 = DIRECTION('',(1.,0.,0.));
#46 = ORIENTED_EDGE('',*,*,#47,.T.);
#47 = EDGE_CURVE('',#40,#48,#50,.T.);
#48 = VERTEX_POINT('',#49);
#49 = CARTESIAN_POINT('',(42.875,12.95,5.));
#50 = LINE('',#51,#52);
#51 = CARTESIAN_POINT('',(42.875,-14.45,5.));
#52 = VECTOR('',#53,1.);
#53 = DIRECTION('',(0.,1.,0.));
#54 = ORIENTED_EDGE('',*,*,#55,.T.);
#55 = EDGE_CURVE('',#48,#56,#58,.T.);
#56 = VERTEX_POINT('',#57);
#57 = CARTESIAN_POINT('',(-27.375,12.95,5.));
#58 = LINE('',#59,#60);
#59 = CARTESIAN_POINT('',(44.375,12.95,5.));
#60 = VECTOR('',#61,1.);
#61 = DIRECTION('',(-1.,0.,0.));
#62 = ORIENTED_EDGE('',*,*,#63,.T.);
#63 = EDGE_CURVE('',#56,#64,#66,.T.);
#64 = VERTEX_POINT('',#65);
#65 = CARTESIAN_POINT('',(-27.375,5.05,5.));
#66 = LINE('',#67,#68);
#67 = CARTESIAN_POINT('',(-27.375,14.45,5.));
#68 = VECTOR('',#69,1.);
#69 = DIRECTION('',(0.,-1.,0.));
#70 = ORIENTED_EDGE('',*,*,#71,.F.);
#71 = EDGE_CURVE('',#72,#64,#74,.T.);
#72 = VERTEX_POINT('',#73);
#73 = CARTESIAN_POINT('',(-25.475,5.05,5.));
#74 = LINE('',#75,#76);
#75 = CARTESIAN_POINT('',(-22.875,5.05,5.));
#76 = VECTOR('',#77,1.);
#77 = DIRECTION('',(-1.,0.,0.));
#78 = ORIENTED_EDGE('',*,*,#79,.F.);
#79 = EDGE_CURVE('',#80,#72,#82,.T.);
#80 = VERTEX_POINT('',#81);
#81 = CARTESIAN_POINT('',(-24.475,6.05,5.));
#82 = CIRCLE('',#83,1.);
#83 = AXIS2_PLACEMENT_3D('',#84,#85,#86);
#84 = CARTESIAN_POINT('',(-25.475,6.05,5.));
#85 = DIRECTION('',(0.,0.,-1.));
#86 = DIRECTION('',(0.,1.,0.));
#87 = ORIENTED_EDGE('',*,*,#88,.F.);
#88 = EDGE_CURVE('',#89,#80,#91,.T.);
#89 = VERTEX_POINT('',#90);
#90 = CARTESIAN_POINT('',(-24.475,10.05,5.));
#91 = LINE('',#92,#93);
#92 = CARTESIAN_POINT('',(-24.475,10.05,5.));
#93 = VECTOR('',#94,1.);
#94 = DIRECTION('',(0.,-1.,0.));
#95 = ORIENTED_EDGE('',*,*,#96,.F.);
#96 = EDGE_CURVE('',#97,#89,#99,.T.);
#97 = VERTEX_POINT('',#98);
#98 = CARTESIAN_POINT('',(23.475,10.05,5.));
#99 = LINE('',#100,#101);
#100 = CARTESIAN_POINT('',(23.475,10.05,5.));
#101 = VECTOR('',#102,1.);
#102 = DIRECTION('',(-1.,0.,0.));
#103 = ORIENTED_EDGE('',*,*,#104,.F.);
#104 = EDGE_CURVE('',#105,#97,#107,.T.);
#105 = VERTEX_POINT('',#106);
#106 = CARTESIAN_POINT('',(23.475,-10.05,5.));
#107 = LINE('',#108,#109);
#108 = CARTESIAN_POINT('',(23.475,-10.05,5.));
#109 = VECTOR('',#110,1.);
#110 = DIRECTION('',(0.,1.,0.));
#111 = ORIENTED_EDGE('',*,*,#112,.F.);
#112 = EDGE_CURVE('',#113,#105,#115,.T.);
#113 = VERTEX_POINT('',#114);
#114 = CARTESIAN_POINT('',(-24.475,-10.05,5.));
#115 = LINE('',#116,#117);
#116 = CARTESIAN_POINT('',(-24.475,-10.05,5.));
#117 = VECTOR('',#118,1.);
#118 = DIRECTION('',(1.,0.,0.));
#119 = ORIENTED_EDGE('',*,*,#120,.F.);
#120 = EDGE_CURVE('',#121,#113,#123,.T.);
#121 = VERTEX_POINT('',#122);
#122 = CARTESIAN_POINT('',(-24.475,-6.05,5.));
#123 = LINE('',#124,#125);
#124 = CARTESIAN_POINT('',(-24.475,10.05,5.));
#125 = VECTOR('',#126,1.);
#126 = DIRECTION('',(0.,-1.,0.));
#127 = ORIENTED_EDGE('',*,*,#128,.F.);
#128 = EDGE_CURVE('',#24,#121,#129,.T.);
#129 = CIRCLE('',#130,1.);
#130 = AXIS2_PLACEMENT_3D('',#131,#132,#133);
#131 = CARTESIAN_POINT('',(-25.475,-6.05,5.));
#132 = DIRECTION('',(-0.,-0.,-1.));
#133 = DIRECTION('',(0.,-1.,0.));
#134 = FACE_BOUND('',#135,.T.);
#135 = EDGE_LOOP('',(#136,#146,#154,#162));
#136 = ORIENTED_EDGE('',*,*,#137,.F.);
#137 = EDGE_CURVE('',#138,#140,#142,.T.);
#138 = VERTEX_POINT('',#139);
#139 = CARTESIAN_POINT('',(26.975,11.05,5.));
#140 = VERTEX_POINT('',#141);
#141 = CARTESIAN_POINT('',(26.975,-11.05,5.));
#142 = LINE('',#143,#144);
#143 = CARTESIAN_POINT('',(26.975,10.05,5.));
#144 = VECTOR('',#145,1.);
#145 = DIRECTION('',(0.,-1.,0.));
#146 = ORIENTED_EDGE('',*,*,#147,.F.);
#147 = EDGE_CURVE('',#148,#138,#150,.T.);
#148 = VERTEX_POINT('',#149);
#149 = CARTESIAN_POINT('',(40.975,11.05,5.));
#150 = LINE('',#151,#152);
#151 = CARTESIAN_POINT('',(39.975,11.05,5.));
#152 = VECTOR('',#153,1.);
#153 = DIRECTION('',(-1.,0.,0.));
#154 = ORIENTED_EDGE('',*,*,#155,.F.);
#155 = EDGE_CURVE('',#156,#148,#158,.T.);
#156 = VERTEX_POINT('',#157);
#157 = CARTESIAN_POINT('',(40.975,-11.05,5.));
#158 = LINE('',#159,#160);
#159 = CARTESIAN_POINT('',(40.975,-10.05,5.));
#160 = VECTOR('',#161,1.);
#161 = DIRECTION('',(0.,1.,0.));
#162 = ORIENTED_EDGE('',*,*,#163,.F.);
#163 = EDGE_CURVE('',#140,#156,#164,.T.);
#164 = LINE('',#165,#166);
#165 = CARTESIAN_POINT('',(27.975,-11.05,5.));
#166 = VECTOR('',#167,1.);
#167 = DIRECTION('',(1.,0.,0.));
#168 = PLANE('',#169);
#169 = AXIS2_PLACEMENT_3D('',#170,#171,#172);
#170 = CARTESIAN_POINT('',(7.75,2.225880327393E-15,5.));
#171 = DIRECTION('',(0.,0.,1.));
#172 = DIRECTION('',(1.,0.,0.));
#173 = ADVANCED_FACE('',(#174),#232,.F.);
#174 = FACE_BOUND('',#175,.F.);
#175 = EDGE_LOOP('',(#176,#177,#186,#194,#202,#210,#218,#226));
#176 = ORIENTED_EDGE('',*,*,#21,.F.);
#177 = ORIENTED_EDGE('',*,*,#178,.F.);
#178 = EDGE_CURVE('',#179,#22,#181,.T.);
#179 = VERTEX_POINT('',#180);
#180 = CARTESIAN_POINT('',(-28.875,-5.05,3.5));
#181 = CIRCLE('',#182,1.5);
#182 = AXIS2_PLACEMENT_3D('',#183,#184,#185);
#183 = CARTESIAN_POINT('',(-27.375,-5.05,3.5));
#184 = DIRECTION('',(-0.,1.,0.));
#185 = DIRECTION('',(0.,0.,-1.));
#186 = ORIENTED_EDGE('',*,*,#187,.T.);
#187 = EDGE_CURVE('',#179,#188,#190,.T.);
#188 = VERTEX_POINT('',#189);
#189 = CARTESIAN_POINT('',(-28.875,-5.05,3.));
#190 = LINE('',#191,#192);
#191 = CARTESIAN_POINT('',(-28.875,-5.05,5.));
#192 = VECTOR('',#193,1.);
#193 = DIRECTION('',(-0.,-0.,-1.));
#194 = ORIENTED_EDGE('',*,*,#195,.T.);
#195 = EDGE_CURVE('',#188,#196,#198,.T.);
#196 = VERTEX_POINT('',#197);
#197 = CARTESIAN_POINT('',(-22.875,-5.05,3.));
#198 = LINE('',#199,#200);
#199 = CARTESIAN_POINT('',(-28.875,-5.05,3.));
#200 = VECTOR('',#201,1.);
#201 = DIRECTION('',(1.,0.,0.));
#202 = ORIENTED_EDGE('',*,*,#203,.F.);
#203 = EDGE_CURVE('',#204,#196,#206,.T.);
#204 = VERTEX_POINT('',#205);
#205 = CARTESIAN_POINT('',(-22.875,-5.05,3.3));
#206 = LINE('',#207,#208);
#207 = CARTESIAN_POINT('',(-22.875,-5.05,5.));
#208 = VECTOR('',#209,1.);
#209 = DIRECTION('',(-0.,-0.,-1.));
#210 = ORIENTED_EDGE('',*,*,#211,.F.);
#211 = EDGE_CURVE('',#212,#204,#214,.T.);
#212 = VERTEX_POINT('',#213);
#213 = CARTESIAN_POINT('',(-24.475,-5.05,3.3));
#214 = LINE('',#215,#216);
#215 = CARTESIAN_POINT('',(-9.162549925112,-5.05,3.3));
#216 = VECTOR('',#217,1.);
#217 = DIRECTION('',(1.,0.,0.));
#218 = ORIENTED_EDGE('',*,*,#219,.T.);
#219 = EDGE_CURVE('',#212,#220,#222,.T.);
#220 = VERTEX_POINT('',#221);
#221 = CARTESIAN_POINT('',(-25.475,-5.05,3.3));
#222 = LINE('',#223,#224);
#223 = CARTESIAN_POINT('',(-9.162549925112,-5.05,3.3));
#224 = VECTOR('',#225,1.);
#225 = DIRECTION('',(-1.,0.,0.));
#226 = ORIENTED_EDGE('',*,*,#227,.T.);
#227 = EDGE_CURVE('',#220,#24,#228,.T.);
#228 = LINE('',#229,#230);
#229 = CARTESIAN_POINT('',(-25.475,-5.05,3.3));
#230 = VECTOR('',#231,1.);
#231 = DIRECTION('',(0.,0.,1.));
#232 = PLANE('',#233);
#233 = AXIS2_PLACEMENT_3D('',#234,#235,#236);
#234 = CARTESIAN_POINT('',(-28.875,-5.05,5.));
#235 = DIRECTION('',(0.,-1.,0.));
#236 = DIRECTION('',(1.,0.,0.));
#237 = ADVANCED_FACE('',(#238),#257,.T.);
#238 = FACE_BOUND('',#239,.F.);
#239 = EDGE_LOOP('',(#240,#249,#255,#256));
#240 = ORIENTED_EDGE('',*,*,#241,.T.);
#241 = EDGE_CURVE('',#220,#242,#244,.T.);
#242 = VERTEX_POINT('',#243);
#243 = CARTESIAN_POINT('',(-24.475,-6.05,3.3));
#244 = CIRCLE('',#245,1.);
#245 = AXIS2_PLACEMENT_3D('',#246,#247,#248);
#246 = CARTESIAN_POINT('',(-25.475,-6.05,3.3));
#247 = DIRECTION('',(-0.,-0.,-1.));
#248 = DIRECTION('',(0.,-1.,0.));
#249 = ORIENTED_EDGE('',*,*,#250,.T.);
#250 = EDGE_CURVE('',#242,#121,#251,.T.);
#251 = LINE('',#252,#253);
#252 = CARTESIAN_POINT('',(-24.475,-6.05,3.3));
#253 = VECTOR('',#254,1.);
#254 = DIRECTION('',(0.,0.,1.));
#255 = ORIENTED_EDGE('',*,*,#128,.F.);
#256 = ORIENTED_EDGE('',*,*,#227,.F.);
#257 = CYLINDRICAL_SURFACE('',#258,1.);
#258 = AXIS2_PLACEMENT_3D('',#259,#260,#261);
#259 = CARTESIAN_POINT('',(-25.475,-6.05,3.3));
#260 = DIRECTION('',(0.,0.,1.));
#261 = DIRECTION('',(0.,1.,0.));
#262 = ADVANCED_FACE('',(#263),#282,.T.);
#263 = FACE_BOUND('',#264,.F.);
#264 = EDGE_LOOP('',(#265,#266,#267,#276));
#265 = ORIENTED_EDGE('',*,*,#178,.T.);
#266 = ORIENTED_EDGE('',*,*,#31,.T.);
#267 = ORIENTED_EDGE('',*,*,#268,.F.);
#268 = EDGE_CURVE('',#269,#32,#271,.T.);
#269 = VERTEX_POINT('',#270);
#270 = CARTESIAN_POINT('',(-28.875,-14.45,3.5));
#271 = ELLIPSE('',#272,2.12132034356,1.5);
#272 = AXIS2_PLACEMENT_3D('',#273,#274,#275);
#273 = CARTESIAN_POINT('',(-27.375,-12.95,3.5));
#274 = DIRECTION('',(-0.707106781187,0.707106781187,0.));
#275 = DIRECTION('',(0.707106781187,0.707106781187,0.));
#276 = ORIENTED_EDGE('',*,*,#277,.F.);
#277 = EDGE_CURVE('',#179,#269,#278,.T.);
#278 = LINE('',#279,#280);
#279 = CARTESIAN_POINT('',(-28.875,-5.05,3.5));
#280 = VECTOR('',#281,1.);
#281 = DIRECTION('',(0.,-1.,0.));
#282 = CYLINDRICAL_SURFACE('',#283,1.5);
#283 = AXIS2_PLACEMENT_3D('',#284,#285,#286);
#284 = CARTESIAN_POINT('',(-27.375,-5.05,3.5));
#285 = DIRECTION('',(0.,-1.,0.));
#286 = DIRECTION('',(-1.,0.,0.));
#287 = ADVANCED_FACE('',(#288),#306,.F.);
#288 = FACE_BOUND('',#289,.F.);
#289 = EDGE_LOOP('',(#290,#291,#292,#300));
#290 = ORIENTED_EDGE('',*,*,#120,.F.);
#291 = ORIENTED_EDGE('',*,*,#250,.F.);
#292 = ORIENTED_EDGE('',*,*,#293,.T.);
#293 = EDGE_CURVE('',#242,#294,#296,.T.);
#294 = VERTEX_POINT('',#295);
#295 = CARTESIAN_POINT('',(-24.475,-10.05,3.3));
#296 = LINE('',#297,#298);
#297 = CARTESIAN_POINT('',(-24.475,10.05,3.3));
#298 = VECTOR('',#299,1.);
#299 = DIRECTION('',(0.,-1.,0.));
#300 = ORIENTED_EDGE('',*,*,#301,.F.);
#301 = EDGE_CURVE('',#113,#294,#302,.T.);
#302 = LINE('',#303,#304);
#303 = CARTESIAN_POINT('',(-24.475,-10.05,5.));
#304 = VECTOR('',#305,1.);
#305 = DIRECTION('',(-0.,-0.,-1.));
#306 = PLANE('',#307);
#307 = AXIS2_PLACEMENT_3D('',#308,#309,#310);
#308 = CARTESIAN_POINT('',(-24.475,10.05,5.));
#309 = DIRECTION('',(-1.,0.,0.));
#310 = DIRECTION('',(0.,-1.,0.));
#311 = ADVANCED_FACE('',(#312),#331,.T.);
#312 = FACE_BOUND('',#313,.F.);
#313 = EDGE_LOOP('',(#314,#315,#316,#325));
#314 = ORIENTED_EDGE('',*,*,#268,.T.);
#315 = ORIENTED_EDGE('',*,*,#39,.T.);
#316 = ORIENTED_EDGE('',*,*,#317,.T.);
#317 = EDGE_CURVE('',#40,#318,#320,.T.);
#318 = VERTEX_POINT('',#319);
#319 = CARTESIAN_POINT('',(44.375,-14.45,3.5));
#320 = ELLIPSE('',#321,2.12132034356,1.5);
#321 = AXIS2_PLACEMENT_3D('',#322,#323,#324);
#322 = CARTESIAN_POINT('',(42.875,-12.95,3.5));
#323 = DIRECTION('',(0.707106781187,0.707106781187,-0.));
#324 = DIRECTION('',(-0.707106781187,0.707106781187,0.));
#325 = ORIENTED_EDGE('',*,*,#326,.F.);
#326 = EDGE_CURVE('',#269,#318,#327,.T.);
#327 = LINE('',#328,#329);
#328 = CARTESIAN_POINT('',(-28.875,-14.45,3.5));
#329 = VECTOR('',#330,1.);
#330 = DIRECTION('',(1.,0.,0.));
#331 = CYLINDRICAL_SURFACE('',#332,1.5);
#332 = AXIS2_PLACEMENT_3D('',#333,#334,#335);
#333 = CARTESIAN_POINT('',(-28.875,-12.95,3.5));
#334 = DIRECTION('',(1.,0.,0.));
#335 = DIRECTION('',(0.,-1.,0.));
#336 = ADVANCED_FACE('',(#337),#355,.F.);
#337 = FACE_BOUND('',#338,.F.);
#338 = EDGE_LOOP('',(#339,#340,#348,#354));
#339 = ORIENTED_EDGE('',*,*,#301,.T.);
#340 = ORIENTED_EDGE('',*,*,#341,.T.);
#341 = EDGE_CURVE('',#294,#342,#344,.T.);
#342 = VERTEX_POINT('',#343);
#343 = CARTESIAN_POINT('',(23.475,-10.05,3.3));
#344 = LINE('',#345,#346);
#345 = CARTESIAN_POINT('',(-24.475,-10.05,3.3));
#346 = VECTOR('',#347,1.);
#347 = DIRECTION('',(1.,0.,0.));
#348 = ORIENTED_EDGE('',*,*,#349,.F.);
#349 = EDGE_CURVE('',#105,#342,#350,.T.);
#350 = LINE('',#351,#352);
#351 = CARTESIAN_POINT('',(23.475,-10.05,5.));
#352 = VECTOR('',#353,1.);
#353 = DIRECTION('',(-0.,-0.,-1.));
#354 = ORIENTED_EDGE('',*,*,#112,.F.);
#355 = PLANE('',#356);
#356 = AXIS2_PLACEMENT_3D('',#357,#358,#359);
#357 = CARTESIAN_POINT('',(-24.475,-10.05,5.));
#358 = DIRECTION('',(0.,-1.,0.));
#359 = DIRECTION('',(1.,0.,0.));
#360 = ADVANCED_FACE('',(#361),#380,.T.);
#361 = FACE_BOUND('',#362,.T.);
#362 = EDGE_LOOP('',(#363,#364,#372,#379));
#363 = ORIENTED_EDGE('',*,*,#317,.T.);
#364 = ORIENTED_EDGE('',*,*,#365,.T.);
#365 = EDGE_CURVE('',#318,#366,#368,.T.);
#366 = VERTEX_POINT('',#367);
#367 = CARTESIAN_POINT('',(44.375,14.45,3.5));
#368 = LINE('',#369,#370);
#369 = CARTESIAN_POINT('',(44.375,-14.45,3.5));
#370 = VECTOR('',#371,1.);
#371 = DIRECTION('',(0.,1.,0.));
#372 = ORIENTED_EDGE('',*,*,#373,.F.);
#373 = EDGE_CURVE('',#48,#366,#374,.T.);
#374 = ELLIPSE('',#375,2.12132034356,1.5);
#375 = AXIS2_PLACEMENT_3D('',#376,#377,#378);
#376 = CARTESIAN_POINT('',(42.875,12.95,3.5));
#377 = DIRECTION('',(-0.707106781187,0.707106781187,0.));
#378 = DIRECTION('',(-0.707106781187,-0.707106781187,0.));
#379 = ORIENTED_EDGE('',*,*,#47,.F.);
#380 = CYLINDRICAL_SURFACE('',#381,1.5);
#381 = AXIS2_PLACEMENT_3D('',#382,#383,#384);
#382 = CARTESIAN_POINT('',(42.875,-14.45,3.5));
#383 = DIRECTION('',(0.,1.,0.));
#384 = DIRECTION('',(0.,0.,1.));
#385 = ADVANCED_FACE('',(#386),#404,.F.);
#386 = FACE_BOUND('',#387,.F.);
#387 = EDGE_LOOP('',(#388,#389,#397,#403));
#388 = ORIENTED_EDGE('',*,*,#349,.T.);
#389 = ORIENTED_EDGE('',*,*,#390,.T.);
#390 = EDGE_CURVE('',#342,#391,#393,.T.);
#391 = VERTEX_POINT('',#392);
#392 = CARTESIAN_POINT('',(23.475,10.05,3.3));
#393 = LINE('',#394,#395);
#394 = CARTESIAN_POINT('',(23.475,-10.05,3.3));
#395 = VECTOR('',#396,1.);
#396 = DIRECTION('',(0.,1.,0.));
#397 = ORIENTED_EDGE('',*,*,#398,.F.);
#398 = EDGE_CURVE('',#97,#391,#399,.T.);
#399 = LINE('',#400,#401);
#400 = CARTESIAN_POINT('',(23.475,10.05,5.));
#401 = VECTOR('',#402,1.);
#402 = DIRECTION('',(-0.,-0.,-1.));
#403 = ORIENTED_EDGE('',*,*,#104,.F.);
#404 = PLANE('',#405);
#405 = AXIS2_PLACEMENT_3D('',#406,#407,#408);
#406 = CARTESIAN_POINT('',(23.475,-10.05,5.));
#407 = DIRECTION('',(1.,0.,0.));
#408 = DIRECTION('',(0.,1.,0.));
#409 = ADVANCED_FACE('',(#410),#429,.T.);
#410 = FACE_BOUND('',#411,.T.);
#411 = EDGE_LOOP('',(#412,#413,#421,#428));
#412 = ORIENTED_EDGE('',*,*,#373,.T.);
#413 = ORIENTED_EDGE('',*,*,#414,.T.);
#414 = EDGE_CURVE('',#366,#415,#417,.T.);
#415 = VERTEX_POINT('',#416);
#416 = CARTESIAN_POINT('',(-28.875,14.45,3.5));
#417 = LINE('',#418,#419);
#418 = CARTESIAN_POINT('',(44.375,14.45,3.5));
#419 = VECTOR('',#420,1.);
#420 = DIRECTION('',(-1.,0.,0.));
#421 = ORIENTED_EDGE('',*,*,#422,.F.);
#422 = EDGE_CURVE('',#56,#415,#423,.T.);
#423 = ELLIPSE('',#424,2.12132034356,1.5);
#424 = AXIS2_PLACEMENT_3D('',#425,#426,#427);
#425 = CARTESIAN_POINT('',(-27.375,12.95,3.5));
#426 = DIRECTION('',(-0.707106781187,-0.707106781187,-0.));
#427 = DIRECTION('',(-0.707106781187,0.707106781187,0.));
#428 = ORIENTED_EDGE('',*,*,#55,.F.);
#429 = CYLINDRICAL_SURFACE('',#430,1.5);
#430 = AXIS2_PLACEMENT_3D('',#431,#432,#433);
#431 = CARTESIAN_POINT('',(44.375,12.95,3.5));
#432 = DIRECTION('',(-1.,0.,0.));
#433 = DIRECTION('',(0.,0.,1.));
#434 = ADVANCED_FACE('',(#435),#453,.F.);
#435 = FACE_BOUND('',#436,.F.);
#436 = EDGE_LOOP('',(#437,#438,#446,#452));
#437 = ORIENTED_EDGE('',*,*,#398,.T.);
#438 = ORIENTED_EDGE('',*,*,#439,.T.);
#439 = EDGE_CURVE('',#391,#440,#442,.T.);
#440 = VERTEX_POINT('',#441);
#441 = CARTESIAN_POINT('',(-24.475,10.05,3.3));
#442 = LINE('',#443,#444);
#443 = CARTESIAN_POINT('',(23.475,10.05,3.3));
#444 = VECTOR('',#445,1.);
#445 = DIRECTION('',(-1.,0.,0.));
#446 = ORIENTED_EDGE('',*,*,#447,.F.);
#447 = EDGE_CURVE('',#89,#440,#448,.T.);
#448 = LINE('',#449,#450);
#449 = CARTESIAN_POINT('',(-24.475,10.05,5.));
#450 = VECTOR('',#451,1.);
#451 = DIRECTION('',(-0.,-0.,-1.));
#452 = ORIENTED_EDGE('',*,*,#96,.F.);
#453 = PLANE('',#454);
#454 = AXIS2_PLACEMENT_3D('',#455,#456,#457);
#455 = CARTESIAN_POINT('',(23.475,10.05,5.));
#456 = DIRECTION('',(0.,1.,0.));
#457 = DIRECTION('',(-1.,0.,0.));
#458 = ADVANCED_FACE('',(#459),#478,.T.);
#459 = FACE_BOUND('',#460,.F.);
#460 = EDGE_LOOP('',(#461,#462,#463,#472));
#461 = ORIENTED_EDGE('',*,*,#422,.F.);
#462 = ORIENTED_EDGE('',*,*,#63,.T.);
#463 = ORIENTED_EDGE('',*,*,#464,.F.);
#464 = EDGE_CURVE('',#465,#64,#467,.T.);
#465 = VERTEX_POINT('',#466);
#466 = CARTESIAN_POINT('',(-28.875,5.05,3.5));
#467 = CIRCLE('',#468,1.5);
#468 = AXIS2_PLACEMENT_3D('',#469,#470,#471);
#469 = CARTESIAN_POINT('',(-27.375,5.05,3.5));
#470 = DIRECTION('',(-0.,1.,0.));
#471 = DIRECTION('',(0.,0.,-1.));
#472 = ORIENTED_EDGE('',*,*,#473,.F.);
#473 = EDGE_CURVE('',#415,#465,#474,.T.);
#474 = LINE('',#475,#476);
#475 = CARTESIAN_POINT('',(-28.875,14.45,3.5));
#476 = VECTOR('',#477,1.);
#477 = DIRECTION('',(0.,-1.,0.));
#478 = CYLINDRICAL_SURFACE('',#479,1.5);
#479 = AXIS2_PLACEMENT_3D('',#480,#481,#482);
#480 = CARTESIAN_POINT('',(-27.375,14.45,3.5));
#481 = DIRECTION('',(0.,-1.,0.));
#482 = DIRECTION('',(-1.,0.,0.));
#483 = ADVANCED_FACE('',(#484),#502,.F.);
#484 = FACE_BOUND('',#485,.F.);
#485 = EDGE_LOOP('',(#486,#487,#488,#496));
#486 = ORIENTED_EDGE('',*,*,#88,.F.);
#487 = ORIENTED_EDGE('',*,*,#447,.T.);
#488 = ORIENTED_EDGE('',*,*,#489,.T.);
#489 = EDGE_CURVE('',#440,#490,#492,.T.);
#490 = VERTEX_POINT('',#491);
#491 = CARTESIAN_POINT('',(-24.475,6.05,3.3));
#492 = LINE('',#493,#494);
#493 = CARTESIAN_POINT('',(-24.475,10.05,3.3));
#494 = VECTOR('',#495,1.);
#495 = DIRECTION('',(0.,-1.,0.));
#496 = ORIENTED_EDGE('',*,*,#497,.F.);
#497 = EDGE_CURVE('',#80,#490,#498,.T.);
#498 = LINE('',#499,#500);
#499 = CARTESIAN_POINT('',(-24.475,6.05,5.));
#500 = VECTOR('',#501,1.);
#501 = DIRECTION('',(0.,0.,-1.));
#502 = PLANE('',#503);
#503 = AXIS2_PLACEMENT_3D('',#504,#505,#506);
#504 = CARTESIAN_POINT('',(-24.475,10.05,5.));
#505 = DIRECTION('',(-1.,0.,0.));
#506 = DIRECTION('',(0.,-1.,0.));
#507 = ADVANCED_FACE('',(#508),#558,.F.);
#508 = FACE_BOUND('',#509,.F.);
#509 = EDGE_LOOP('',(#510,#511,#519,#527,#535,#543,#551,#557));
#510 = ORIENTED_EDGE('',*,*,#71,.F.);
#511 = ORIENTED_EDGE('',*,*,#512,.T.);
#512 = EDGE_CURVE('',#72,#513,#515,.T.);
#513 = VERTEX_POINT('',#514);
#514 = CARTESIAN_POINT('',(-25.475,5.05,3.3));
#515 = LINE('',#516,#517);
#516 = CARTESIAN_POINT('',(-25.475,5.05,5.));
#517 = VECTOR('',#518,1.);
#518 = DIRECTION('',(0.,0.,-1.));
#519 = ORIENTED_EDGE('',*,*,#520,.F.);
#520 = EDGE_CURVE('',#521,#513,#523,.T.);
#521 = VERTEX_POINT('',#522);
#522 = CARTESIAN_POINT('',(-24.475,5.05,3.3));
#523 = LINE('',#524,#525);
#524 = CARTESIAN_POINT('',(-6.162549925112,5.05,3.3));
#525 = VECTOR('',#526,1.);
#526 = DIRECTION('',(-1.,-0.,-0.));
#527 = ORIENTED_EDGE('',*,*,#528,.F.);
#528 = EDGE_CURVE('',#529,#521,#531,.T.);
#529 = VERTEX_POINT('',#530);
#530 = CARTESIAN_POINT('',(-22.875,5.05,3.3));
#531 = LINE('',#532,#533);
#532 = CARTESIAN_POINT('',(-6.162549925112,5.05,3.3));
#533 = VECTOR('',#534,1.);
#534 = DIRECTION('',(-1.,0.,0.));
#535 = ORIENTED_EDGE('',*,*,#536,.T.);
#536 = EDGE_CURVE('',#529,#537,#539,.T.);
#537 = VERTEX_POINT('',#538);
#538 = CARTESIAN_POINT('',(-22.875,5.05,3.));
#539 = LINE('',#540,#541);
#540 = CARTESIAN_POINT('',(-22.875,5.05,5.));
#541 = VECTOR('',#542,1.);
#542 = DIRECTION('',(-0.,-0.,-1.));
#543 = ORIENTED_EDGE('',*,*,#544,.T.);
#544 = EDGE_CURVE('',#537,#545,#547,.T.);
#545 = VERTEX_POINT('',#546);
#546 = CARTESIAN_POINT('',(-28.875,5.05,3.));
#547 = LINE('',#548,#549);
#548 = CARTESIAN_POINT('',(-22.875,5.05,3.));
#549 = VECTOR('',#550,1.);
#550 = DIRECTION('',(-1.,0.,0.));
#551 = ORIENTED_EDGE('',*,*,#552,.F.);
#552 = EDGE_CURVE('',#465,#545,#553,.T.);
#553 = LINE('',#554,#555);
#554 = CARTESIAN_POINT('',(-28.875,5.05,5.));
#555 = VECTOR('',#556,1.);
#556 = DIRECTION('',(-0.,-0.,-1.));
#557 = ORIENTED_EDGE('',*,*,#464,.T.);
#558 = PLANE('',#559);
#559 = AXIS2_PLACEMENT_3D('',#560,#561,#562);
#560 = CARTESIAN_POINT('',(-22.875,5.05,5.));
#561 = DIRECTION('',(0.,1.,0.));
#562 = DIRECTION('',(-1.,0.,0.));
#563 = ADVANCED_FACE('',(#564),#576,.T.);
#564 = FACE_BOUND('',#565,.T.);
#565 = EDGE_LOOP('',(#566,#567,#568,#575));
#566 = ORIENTED_EDGE('',*,*,#79,.T.);
#567 = ORIENTED_EDGE('',*,*,#512,.T.);
#568 = ORIENTED_EDGE('',*,*,#569,.F.);
#569 = EDGE_CURVE('',#490,#513,#570,.T.);
#570 = CIRCLE('',#571,1.);
#571 = AXIS2_PLACEMENT_3D('',#572,#573,#574);
#572 = CARTESIAN_POINT('',(-25.475,6.05,3.3));
#573 = DIRECTION('',(0.,0.,-1.));
#574 = DIRECTION('',(0.,1.,0.));
#575 = ORIENTED_EDGE('',*,*,#497,.F.);
#576 = CYLINDRICAL_SURFACE('',#577,1.);
#577 = AXIS2_PLACEMENT_3D('',#578,#579,#580);
#578 = CARTESIAN_POINT('',(-25.475,6.05,5.));
#579 = DIRECTION('',(0.,0.,-1.));
#580 = DIRECTION('',(1.,0.,0.));
#581 = ADVANCED_FACE('',(#582),#609,.T.);
#582 = FACE_BOUND('',#583,.F.);
#583 = EDGE_LOOP('',(#584,#593,#601,#608));
#584 = ORIENTED_EDGE('',*,*,#585,.T.);
#585 = EDGE_CURVE('',#138,#586,#588,.T.);
#586 = VERTEX_POINT('',#587);
#587 = CARTESIAN_POINT('',(27.975,10.05,4.));
#588 = ELLIPSE('',#589,1.414213562373,1.);
#589 = AXIS2_PLACEMENT_3D('',#590,#591,#592);
#590 = CARTESIAN_POINT('',(26.975,11.05,4.));
#591 = DIRECTION('',(0.707106781187,0.707106781187,0.));
#592 = DIRECTION('',(0.707106781187,-0.707106781187,0.));
#593 = ORIENTED_EDGE('',*,*,#594,.T.);
#594 = EDGE_CURVE('',#586,#595,#597,.T.);
#595 = VERTEX_POINT('',#596);
#596 = CARTESIAN_POINT('',(27.975,-10.05,4.));
#597 = LINE('',#598,#599);
#598 = CARTESIAN_POINT('',(27.975,10.05,4.));
#599 = VECTOR('',#600,1.);
#600 = DIRECTION('',(0.,-1.,0.));
#601 = ORIENTED_EDGE('',*,*,#602,.F.);
#602 = EDGE_CURVE('',#140,#595,#603,.T.);
#603 = ELLIPSE('',#604,1.414213562373,1.);
#604 = AXIS2_PLACEMENT_3D('',#605,#606,#607);
#605 = CARTESIAN_POINT('',(26.975,-11.05,4.));
#606 = DIRECTION('',(-0.707106781187,0.707106781187,0.));
#607 = DIRECTION('',(-0.707106781187,-0.707106781187,0.));
#608 = ORIENTED_EDGE('',*,*,#137,.F.);
#609 = CYLINDRICAL_SURFACE('',#610,1.);
#610 = AXIS2_PLACEMENT_3D('',#611,#612,#613);
#611 = CARTESIAN_POINT('',(26.975,10.05,4.));
#612 = DIRECTION('',(0.,-1.,0.));
#613 = DIRECTION('',(0.,0.,1.));
#614 = ADVANCED_FACE('',(#615),#634,.T.);
#615 = FACE_BOUND('',#616,.F.);
#616 = EDGE_LOOP('',(#617,#626,#632,#633));
#617 = ORIENTED_EDGE('',*,*,#618,.T.);
#618 = EDGE_CURVE('',#148,#619,#621,.T.);
#619 = VERTEX_POINT('',#620);
#620 = CARTESIAN_POINT('',(39.975,10.05,4.));
#621 = ELLIPSE('',#622,1.414213562373,1.);
#622 = AXIS2_PLACEMENT_3D('',#623,#624,#625);
#623 = CARTESIAN_POINT('',(40.975,11.05,4.));
#624 = DIRECTION('',(0.707106781187,-0.707106781187,0.));
#625 = DIRECTION('',(-0.707106781187,-0.707106781187,0.));
#626 = ORIENTED_EDGE('',*,*,#627,.T.);
#627 = EDGE_CURVE('',#619,#586,#628,.T.);
#628 = LINE('',#629,#630);
#629 = CARTESIAN_POINT('',(39.975,10.05,4.));
#630 = VECTOR('',#631,1.);
#631 = DIRECTION('',(-1.,0.,0.));
#632 = ORIENTED_EDGE('',*,*,#585,.F.);
#633 = ORIENTED_EDGE('',*,*,#147,.F.);
#634 = CYLINDRICAL_SURFACE('',#635,1.);
#635 = AXIS2_PLACEMENT_3D('',#636,#637,#638);
#636 = CARTESIAN_POINT('',(39.975,11.05,4.));
#637 = DIRECTION('',(-1.,0.,0.));
#638 = DIRECTION('',(0.,0.,1.));
#639 = ADVANCED_FACE('',(#640),#659,.T.);
#640 = FACE_BOUND('',#641,.F.);
#641 = EDGE_LOOP('',(#642,#643,#651,#658));
#642 = ORIENTED_EDGE('',*,*,#602,.T.);
#643 = ORIENTED_EDGE('',*,*,#644,.T.);
#644 = EDGE_CURVE('',#595,#645,#647,.T.);
#645 = VERTEX_POINT('',#646);
#646 = CARTESIAN_POINT('',(39.975,-10.05,4.));
#647 = LINE('',#648,#649);
#648 = CARTESIAN_POINT('',(27.975,-10.05,4.));
#649 = VECTOR('',#650,1.);
#650 = DIRECTION('',(1.,0.,0.));
#651 = ORIENTED_EDGE('',*,*,#652,.F.);
#652 = EDGE_CURVE('',#156,#645,#653,.T.);
#653 = ELLIPSE('',#654,1.414213562373,1.);
#654 = AXIS2_PLACEMENT_3D('',#655,#656,#657);
#655 = CARTESIAN_POINT('',(40.975,-11.05,4.));
#656 = DIRECTION('',(-0.707106781187,-0.707106781187,-0.));
#657 = DIRECTION('',(-0.707106781187,0.707106781187,0.));
#658 = ORIENTED_EDGE('',*,*,#163,.F.);
#659 = CYLINDRICAL_SURFACE('',#660,1.);
#660 = AXIS2_PLACEMENT_3D('',#661,#662,#663);
#661 = CARTESIAN_POINT('',(27.975,-11.05,4.));
#662 = DIRECTION('',(1.,0.,0.));
#663 = DIRECTION('',(0.,0.,1.));
#664 = ADVANCED_FACE('',(#665),#676,.T.);
#665 = FACE_BOUND('',#666,.F.);
#666 = EDGE_LOOP('',(#667,#668,#674,#675));
#667 = ORIENTED_EDGE('',*,*,#652,.T.);
#668 = ORIENTED_EDGE('',*,*,#669,.T.);
#669 = EDGE_CURVE('',#645,#619,#670,.T.);
#670 = LINE('',#671,#672);
#671 = CARTESIAN_POINT('',(39.975,-10.05,4.));
#672 = VECTOR('',#673,1.);
#673 = DIRECTION('',(0.,1.,0.));
#674 = ORIENTED_EDGE('',*,*,#618,.F.);
#675 = ORIENTED_EDGE('',*,*,#155,.F.);
#676 = CYLINDRICAL_SURFACE('',#677,1.);
#677 = AXIS2_PLACEMENT_3D('',#678,#679,#680);
#678 = CARTESIAN_POINT('',(40.975,-10.05,4.));
#679 = DIRECTION('',(0.,1.,0.));
#680 = DIRECTION('',(0.,0.,1.));
#681 = ADVANCED_FACE('',(#682),#701,.T.);
#682 = FACE_BOUND('',#683,.T.);
#683 = EDGE_LOOP('',(#684,#685,#686,#687,#688,#689,#690,#691,#692,#698,
    #699,#700));
#684 = ORIENTED_EDGE('',*,*,#293,.T.);
#685 = ORIENTED_EDGE('',*,*,#341,.T.);
#686 = ORIENTED_EDGE('',*,*,#390,.T.);
#687 = ORIENTED_EDGE('',*,*,#439,.T.);
#688 = ORIENTED_EDGE('',*,*,#489,.T.);
#689 = ORIENTED_EDGE('',*,*,#569,.T.);
#690 = ORIENTED_EDGE('',*,*,#520,.F.);
#691 = ORIENTED_EDGE('',*,*,#528,.F.);
#692 = ORIENTED_EDGE('',*,*,#693,.F.);
#693 = EDGE_CURVE('',#204,#529,#694,.T.);
#694 = LINE('',#695,#696);
#695 = CARTESIAN_POINT('',(-22.875,-2.525,3.3));
#696 = VECTOR('',#697,1.);
#697 = DIRECTION('',(0.,1.,0.));
#698 = ORIENTED_EDGE('',*,*,#211,.F.);
#699 = ORIENTED_EDGE('',*,*,#219,.T.);
#700 = ORIENTED_EDGE('',*,*,#241,.T.);
#701 = PLANE('',#702);
#702 = AXIS2_PLACEMENT_3D('',#703,#704,#705);
#703 = CARTESIAN_POINT('',(10.549900149775,2.057487702151E-15,3.3));
#704 = DIRECTION('',(0.,0.,1.));
#705 = DIRECTION('',(1.,0.,0.));
#706 = ADVANCED_FACE('',(#707),#741,.F.);
#707 = FACE_BOUND('',#708,.F.);
#708 = EDGE_LOOP('',(#709,#717,#725,#731,#732,#733,#739,#740));
#709 = ORIENTED_EDGE('',*,*,#710,.F.);
#710 = EDGE_CURVE('',#711,#269,#713,.T.);
#711 = VERTEX_POINT('',#712);
#712 = CARTESIAN_POINT('',(-28.875,-14.45,0.));
#713 = LINE('',#714,#715);
#714 = CARTESIAN_POINT('',(-28.875,-14.45,0.));
#715 = VECTOR('',#716,1.);
#716 = DIRECTION('',(0.,0.,1.));
#717 = ORIENTED_EDGE('',*,*,#718,.F.);
#718 = EDGE_CURVE('',#719,#711,#721,.T.);
#719 = VERTEX_POINT('',#720);
#720 = CARTESIAN_POINT('',(-28.875,14.45,0.));
#721 = LINE('',#722,#723);
#722 = CARTESIAN_POINT('',(-28.875,14.45,0.));
#723 = VECTOR('',#724,1.);
#724 = DIRECTION('',(0.,-1.,0.));
#725 = ORIENTED_EDGE('',*,*,#726,.T.);
#726 = EDGE_CURVE('',#719,#415,#727,.T.);
#727 = LINE('',#728,#729);
#728 = CARTESIAN_POINT('',(-28.875,14.45,0.));
#729 = VECTOR('',#730,1.);
#730 = DIRECTION('',(0.,0.,1.));
#731 = ORIENTED_EDGE('',*,*,#473,.T.);
#732 = ORIENTED_EDGE('',*,*,#552,.T.);
#733 = ORIENTED_EDGE('',*,*,#734,.T.);
#734 = EDGE_CURVE('',#545,#188,#735,.T.);
#735 = LINE('',#736,#737);
#736 = CARTESIAN_POINT('',(-28.875,5.05,3.));
#737 = VECTOR('',#738,1.);
#738 = DIRECTION('',(0.,-1.,0.));
#739 = ORIENTED_EDGE('',*,*,#187,.F.);
#740 = ORIENTED_EDGE('',*,*,#277,.T.);
#741 = PLANE('',#742);
#742 = AXIS2_PLACEMENT_3D('',#743,#744,#745);
#743 = CARTESIAN_POINT('',(-28.875,14.45,0.));
#744 = DIRECTION('',(1.,0.,0.));
#745 = DIRECTION('',(0.,-1.,0.));
#746 = ADVANCED_FACE('',(#747),#758,.T.);
#747 = FACE_BOUND('',#748,.T.);
#748 = EDGE_LOOP('',(#749,#750,#751,#757));
#749 = ORIENTED_EDGE('',*,*,#734,.T.);
#750 = ORIENTED_EDGE('',*,*,#195,.T.);
#751 = ORIENTED_EDGE('',*,*,#752,.T.);
#752 = EDGE_CURVE('',#196,#537,#753,.T.);
#753 = LINE('',#754,#755);
#754 = CARTESIAN_POINT('',(-22.875,-5.05,3.));
#755 = VECTOR('',#756,1.);
#756 = DIRECTION('',(0.,1.,0.));
#757 = ORIENTED_EDGE('',*,*,#544,.T.);
#758 = PLANE('',#759);
#759 = AXIS2_PLACEMENT_3D('',#760,#761,#762);
#760 = CARTESIAN_POINT('',(-25.875,1.765323567106E-15,3.));
#761 = DIRECTION('',(0.,0.,1.));
#762 = DIRECTION('',(1.,0.,0.));
#763 = ADVANCED_FACE('',(#764),#770,.F.);
#764 = FACE_BOUND('',#765,.F.);
#765 = EDGE_LOOP('',(#766,#767,#768,#769));
#766 = ORIENTED_EDGE('',*,*,#693,.F.);
#767 = ORIENTED_EDGE('',*,*,#203,.T.);
#768 = ORIENTED_EDGE('',*,*,#752,.T.);
#769 = ORIENTED_EDGE('',*,*,#536,.F.);
#770 = PLANE('',#771);
#771 = AXIS2_PLACEMENT_3D('',#772,#773,#774);
#772 = CARTESIAN_POINT('',(-22.875,-5.05,5.));
#773 = DIRECTION('',(1.,0.,0.));
#774 = DIRECTION('',(0.,1.,0.));
#775 = ADVANCED_FACE('',(#776),#794,.F.);
#776 = FACE_BOUND('',#777,.F.);
#777 = EDGE_LOOP('',(#778,#779,#780,#788));
#778 = ORIENTED_EDGE('',*,*,#710,.T.);
#779 = ORIENTED_EDGE('',*,*,#326,.T.);
#780 = ORIENTED_EDGE('',*,*,#781,.F.);
#781 = EDGE_CURVE('',#782,#318,#784,.T.);
#782 = VERTEX_POINT('',#783);
#783 = CARTESIAN_POINT('',(44.375,-14.45,0.));
#784 = LINE('',#785,#786);
#785 = CARTESIAN_POINT('',(44.375,-14.45,0.));
#786 = VECTOR('',#787,1.);
#787 = DIRECTION('',(0.,0.,1.));
#788 = ORIENTED_EDGE('',*,*,#789,.F.);
#789 = EDGE_CURVE('',#711,#782,#790,.T.);
#790 = LINE('',#791,#792);
#791 = CARTESIAN_POINT('',(-28.875,-14.45,0.));
#792 = VECTOR('',#793,1.);
#793 = DIRECTION('',(1.,0.,0.));
#794 = PLANE('',#795);
#795 = AXIS2_PLACEMENT_3D('',#796,#797,#798);
#796 = CARTESIAN_POINT('',(-28.875,-14.45,0.));
#797 = DIRECTION('',(0.,1.,0.));
#798 = DIRECTION('',(1.,0.,0.));
#799 = ADVANCED_FACE('',(#800),#818,.F.);
#800 = FACE_BOUND('',#801,.F.);
#801 = EDGE_LOOP('',(#802,#803,#804,#812));
#802 = ORIENTED_EDGE('',*,*,#781,.T.);
#803 = ORIENTED_EDGE('',*,*,#365,.T.);
#804 = ORIENTED_EDGE('',*,*,#805,.F.);
#805 = EDGE_CURVE('',#806,#366,#808,.T.);
#806 = VERTEX_POINT('',#807);
#807 = CARTESIAN_POINT('',(44.375,14.45,0.));
#808 = LINE('',#809,#810);
#809 = CARTESIAN_POINT('',(44.375,14.45,0.));
#810 = VECTOR('',#811,1.);
#811 = DIRECTION('',(0.,0.,1.));
#812 = ORIENTED_EDGE('',*,*,#813,.F.);
#813 = EDGE_CURVE('',#782,#806,#814,.T.);
#814 = LINE('',#815,#816);
#815 = CARTESIAN_POINT('',(44.375,-14.45,0.));
#816 = VECTOR('',#817,1.);
#817 = DIRECTION('',(0.,1.,0.));
#818 = PLANE('',#819);
#819 = AXIS2_PLACEMENT_3D('',#820,#821,#822);
#820 = CARTESIAN_POINT('',(44.375,-14.45,0.));
#821 = DIRECTION('',(-1.,0.,0.));
#822 = DIRECTION('',(0.,1.,0.));
#823 = ADVANCED_FACE('',(#824),#835,.F.);
#824 = FACE_BOUND('',#825,.F.);
#825 = EDGE_LOOP('',(#826,#827,#828,#829));
#826 = ORIENTED_EDGE('',*,*,#805,.T.);
#827 = ORIENTED_EDGE('',*,*,#414,.T.);
#828 = ORIENTED_EDGE('',*,*,#726,.F.);
#829 = ORIENTED_EDGE('',*,*,#830,.F.);
#830 = EDGE_CURVE('',#806,#719,#831,.T.);
#831 = LINE('',#832,#833);
#832 = CARTESIAN_POINT('',(44.375,14.45,0.));
#833 = VECTOR('',#834,1.);
#834 = DIRECTION('',(-1.,0.,0.));
#835 = PLANE('',#836);
#836 = AXIS2_PLACEMENT_3D('',#837,#838,#839);
#837 = CARTESIAN_POINT('',(44.375,14.45,0.));
#838 = DIRECTION('',(0.,-1.,0.));
#839 = DIRECTION('',(-1.,0.,0.));
#840 = ADVANCED_FACE('',(#841),#866,.F.);
#841 = FACE_BOUND('',#842,.F.);
#842 = EDGE_LOOP('',(#843,#851,#859,#865));
#843 = ORIENTED_EDGE('',*,*,#844,.T.);
#844 = EDGE_CURVE('',#586,#845,#847,.T.);
#845 = VERTEX_POINT('',#846);
#846 = CARTESIAN_POINT('',(27.975,10.05,3.3));
#847 = LINE('',#848,#849);
#848 = CARTESIAN_POINT('',(27.975,10.05,5.));
#849 = VECTOR('',#850,1.);
#850 = DIRECTION('',(-0.,-0.,-1.));
#851 = ORIENTED_EDGE('',*,*,#852,.T.);
#852 = EDGE_CURVE('',#845,#853,#855,.T.);
#853 = VERTEX_POINT('',#854);
#854 = CARTESIAN_POINT('',(27.975,-10.05,3.3));
#855 = LINE('',#856,#857);
#856 = CARTESIAN_POINT('',(27.975,10.05,3.3));
#857 = VECTOR('',#858,1.);
#858 = DIRECTION('',(0.,-1.,0.));
#859 = ORIENTED_EDGE('',*,*,#860,.F.);
#860 = EDGE_CURVE('',#595,#853,#861,.T.);
#861 = LINE('',#862,#863);
#862 = CARTESIAN_POINT('',(27.975,-10.05,5.));
#863 = VECTOR('',#864,1.);
#864 = DIRECTION('',(-0.,-0.,-1.));
#865 = ORIENTED_EDGE('',*,*,#594,.F.);
#866 = PLANE('',#867);
#867 = AXIS2_PLACEMENT_3D('',#868,#869,#870);
#868 = CARTESIAN_POINT('',(27.975,10.05,5.));
#869 = DIRECTION('',(-1.,0.,0.));
#870 = DIRECTION('',(0.,-1.,0.));
#871 = ADVANCED_FACE('',(#872),#890,.F.);
#872 = FACE_BOUND('',#873,.F.);
#873 = EDGE_LOOP('',(#874,#882,#888,#889));
#874 = ORIENTED_EDGE('',*,*,#875,.T.);
#875 = EDGE_CURVE('',#619,#876,#878,.T.);
#876 = VERTEX_POINT('',#877);
#877 = CARTESIAN_POINT('',(39.975,10.05,3.3));
#878 = LINE('',#879,#880);
#879 = CARTESIAN_POINT('',(39.975,10.05,5.));
#880 = VECTOR('',#881,1.);
#881 = DIRECTION('',(-0.,-0.,-1.));
#882 = ORIENTED_EDGE('',*,*,#883,.T.);
#883 = EDGE_CURVE('',#876,#845,#884,.T.);
#884 = LINE('',#885,#886);
#885 = CARTESIAN_POINT('',(39.975,10.05,3.3));
#886 = VECTOR('',#887,1.);
#887 = DIRECTION('',(-1.,0.,0.));
#888 = ORIENTED_EDGE('',*,*,#844,.F.);
#889 = ORIENTED_EDGE('',*,*,#627,.F.);
#890 = PLANE('',#891);
#891 = AXIS2_PLACEMENT_3D('',#892,#893,#894);
#892 = CARTESIAN_POINT('',(39.975,10.05,5.));
#893 = DIRECTION('',(0.,1.,0.));
#894 = DIRECTION('',(-1.,0.,0.));
#895 = ADVANCED_FACE('',(#896),#914,.F.);
#896 = FACE_BOUND('',#897,.F.);
#897 = EDGE_LOOP('',(#898,#899,#907,#913));
#898 = ORIENTED_EDGE('',*,*,#860,.T.);
#899 = ORIENTED_EDGE('',*,*,#900,.T.);
#900 = EDGE_CURVE('',#853,#901,#903,.T.);
#901 = VERTEX_POINT('',#902);
#902 = CARTESIAN_POINT('',(39.975,-10.05,3.3));
#903 = LINE('',#904,#905);
#904 = CARTESIAN_POINT('',(27.975,-10.05,3.3));
#905 = VECTOR('',#906,1.);
#906 = DIRECTION('',(1.,0.,0.));
#907 = ORIENTED_EDGE('',*,*,#908,.F.);
#908 = EDGE_CURVE('',#645,#901,#909,.T.);
#909 = LINE('',#910,#911);
#910 = CARTESIAN_POINT('',(39.975,-10.05,5.));
#911 = VECTOR('',#912,1.);
#912 = DIRECTION('',(-0.,-0.,-1.));
#913 = ORIENTED_EDGE('',*,*,#644,.F.);
#914 = PLANE('',#915);
#915 = AXIS2_PLACEMENT_3D('',#916,#917,#918);
#916 = CARTESIAN_POINT('',(27.975,-10.05,5.));
#917 = DIRECTION('',(0.,-1.,0.));
#918 = DIRECTION('',(1.,0.,0.));
#919 = ADVANCED_FACE('',(#920),#931,.F.);
#920 = FACE_BOUND('',#921,.F.);
#921 = EDGE_LOOP('',(#922,#923,#929,#930));
#922 = ORIENTED_EDGE('',*,*,#908,.T.);
#923 = ORIENTED_EDGE('',*,*,#924,.T.);
#924 = EDGE_CURVE('',#901,#876,#925,.T.);
#925 = LINE('',#926,#927);
#926 = CARTESIAN_POINT('',(39.975,-10.05,3.3));
#927 = VECTOR('',#928,1.);
#928 = DIRECTION('',(0.,1.,0.));
#929 = ORIENTED_EDGE('',*,*,#875,.F.);
#930 = ORIENTED_EDGE('',*,*,#669,.F.);
#931 = PLANE('',#932);
#932 = AXIS2_PLACEMENT_3D('',#933,#934,#935);
#933 = CARTESIAN_POINT('',(39.975,-10.05,5.));
#934 = DIRECTION('',(1.,0.,0.));
#935 = DIRECTION('',(0.,1.,0.));
#936 = ADVANCED_FACE('',(#937,#943,#954),#965,.F.);
#937 = FACE_BOUND('',#938,.F.);
#938 = EDGE_LOOP('',(#939,#940,#941,#942));
#939 = ORIENTED_EDGE('',*,*,#718,.T.);
#940 = ORIENTED_EDGE('',*,*,#789,.T.);
#941 = ORIENTED_EDGE('',*,*,#813,.T.);
#942 = ORIENTED_EDGE('',*,*,#830,.T.);
#943 = FACE_BOUND('',#944,.F.);
#944 = EDGE_LOOP('',(#945));
#945 = ORIENTED_EDGE('',*,*,#946,.T.);
#946 = EDGE_CURVE('',#947,#947,#949,.T.);
#947 = VERTEX_POINT('',#948);
#948 = CARTESIAN_POINT('',(-3.875,0.,0.));
#949 = CIRCLE('',#950,10.);
#950 = AXIS2_PLACEMENT_3D('',#951,#952,#953);
#951 = CARTESIAN_POINT('',(-13.875,0.,0.));
#952 = DIRECTION('',(0.,0.,-1.));
#953 = DIRECTION('',(1.,0.,0.));
#954 = FACE_BOUND('',#955,.F.);
#955 = EDGE_LOOP('',(#956));
#956 = ORIENTED_EDGE('',*,*,#957,.T.);
#957 = EDGE_CURVE('',#958,#958,#960,.T.);
#958 = VERTEX_POINT('',#959);
#959 = CARTESIAN_POINT('',(39.375,0.,0.));
#960 = CIRCLE('',#961,10.);
#961 = AXIS2_PLACEMENT_3D('',#962,#963,#964);
#962 = CARTESIAN_POINT('',(29.375,0.,0.));
#963 = DIRECTION('',(0.,0.,-1.));
#964 = DIRECTION('',(1.,0.,0.));
#965 = PLANE('',#966);
#966 = AXIS2_PLACEMENT_3D('',#967,#968,#969);
#967 = CARTESIAN_POINT('',(7.75,2.225880327393E-15,0.));
#968 = DIRECTION('',(0.,0.,1.));
#969 = DIRECTION('',(1.,0.,0.));
#970 = ADVANCED_FACE('',(#971),#977,.T.);
#971 = FACE_BOUND('',#972,.T.);
#972 = EDGE_LOOP('',(#973,#974,#975,#976));
#973 = ORIENTED_EDGE('',*,*,#852,.T.);
#974 = ORIENTED_EDGE('',*,*,#900,.T.);
#975 = ORIENTED_EDGE('',*,*,#924,.T.);
#976 = ORIENTED_EDGE('',*,*,#883,.T.);
#977 = PLANE('',#978);
#978 = AXIS2_PLACEMENT_3D('',#979,#980,#981);
#979 = CARTESIAN_POINT('',(10.549900149775,2.057487702151E-15,3.3));
#980 = DIRECTION('',(0.,0.,1.));
#981 = DIRECTION('',(1.,0.,0.));
#982 = ADVANCED_FACE('',(#983),#1002,.F.);
#983 = FACE_BOUND('',#984,.F.);
#984 = EDGE_LOOP('',(#985,#993,#1000,#1001));
#985 = ORIENTED_EDGE('',*,*,#986,.T.);
#986 = EDGE_CURVE('',#947,#987,#989,.T.);
#987 = VERTEX_POINT('',#988);
#988 = CARTESIAN_POINT('',(-3.875,0.,2.));
#989 = LINE('',#990,#991);
#990 = CARTESIAN_POINT('',(-3.875,0.,0.));
#991 = VECTOR('',#992,1.);
#992 = DIRECTION('',(0.,0.,1.));
#993 = ORIENTED_EDGE('',*,*,#994,.T.);
#994 = EDGE_CURVE('',#987,#987,#995,.T.);
#995 = CIRCLE('',#996,10.);
#996 = AXIS2_PLACEMENT_3D('',#997,#998,#999);
#997 = CARTESIAN_POINT('',(-13.875,0.,2.));
#998 = DIRECTION('',(0.,0.,-1.));
#999 = DIRECTION('',(1.,0.,0.));
#1000 = ORIENTED_EDGE('',*,*,#986,.F.);
#1001 = ORIENTED_EDGE('',*,*,#946,.F.);
#1002 = CYLINDRICAL_SURFACE('',#1003,10.);
#1003 = AXIS2_PLACEMENT_3D('',#1004,#1005,#1006);
#1004 = CARTESIAN_POINT('',(-13.875,0.,0.));
#1005 = DIRECTION('',(0.,0.,-1.));
#1006 = DIRECTION('',(1.,0.,0.));
#1007 = ADVANCED_FACE('',(#1008),#1027,.F.);
#1008 = FACE_BOUND('',#1009,.F.);
#1009 = EDGE_LOOP('',(#1010,#1018,#1025,#1026));
#1010 = ORIENTED_EDGE('',*,*,#1011,.T.);
#1011 = EDGE_CURVE('',#958,#1012,#1014,.T.);
#1012 = VERTEX_POINT('',#1013);
#1013 = CARTESIAN_POINT('',(39.375,0.,2.));
#1014 = LINE('',#1015,#1016);
#1015 = CARTESIAN_POINT('',(39.375,0.,0.));
#1016 = VECTOR('',#1017,1.);
#1017 = DIRECTION('',(0.,0.,1.));
#1018 = ORIENTED_EDGE('',*,*,#1019,.T.);
#1019 = EDGE_CURVE('',#1012,#1012,#1020,.T.);
#1020 = CIRCLE('',#1021,10.);
#1021 = AXIS2_PLACEMENT_3D('',#1022,#1023,#1024);
#1022 = CARTESIAN_POINT('',(29.375,0.,2.));
#1023 = DIRECTION('',(0.,0.,-1.));
#1024 = DIRECTION('',(1.,0.,0.));
#1025 = ORIENTED_EDGE('',*,*,#1011,.F.);
#1026 = ORIENTED_EDGE('',*,*,#957,.F.);
#1027 = CYLINDRICAL_SURFACE('',#1028,10.);
#1028 = AXIS2_PLACEMENT_3D('',#1029,#1030,#1031);
#1029 = CARTESIAN_POINT('',(29.375,0.,0.));
#1030 = DIRECTION('',(0.,0.,-1.));
#1031 = DIRECTION('',(1.,0.,0.));
#1032 = ADVANCED_FACE('',(#1033),#1036,.F.);
#1033 = FACE_BOUND('',#1034,.T.);
#1034 = EDGE_LOOP('',(#1035));
#1035 = ORIENTED_EDGE('',*,*,#994,.T.);
#1036 = PLANE('',#1037);
#1037 = AXIS2_PLACEMENT_3D('',#1038,#1039,#1040);
#1038 = CARTESIAN_POINT('',(7.75,-3.428682531579E-16,2.));
#1039 = DIRECTION('',(0.,0.,1.));
#1040 = DIRECTION('',(1.,0.,0.));
#1041 = ADVANCED_FACE('',(#1042),#1045,.F.);
#1042 = FACE_BOUND('',#1043,.T.);
#1043 = EDGE_LOOP('',(#1044));
#1044 = ORIENTED_EDGE('',*,*,#1019,.T.);
#1045 = PLANE('',#1046);
#1046 = AXIS2_PLACEMENT_3D('',#1047,#1048,#1049);
#1047 = CARTESIAN_POINT('',(7.75,-3.428682531579E-16,2.));
#1048 = DIRECTION('',(0.,0.,1.));
#1049 = DIRECTION('',(1.,0.,0.));
#1050 = ( GEOMETRIC_REPRESENTATION_CONTEXT(3) 
GLOBAL_UNCERTAINTY_ASSIGNED_CONTEXT((#1054)) 
GLOBAL_UNIT_ASSIGNED_CONTEXT((#1051,#1052,#1053)) REPRESENTATION_CONTEXT
('Context #1','3D Context with UNIT and UNCERTAINTY') );
#1051 = ( LENGTH_UNIT() NAMED_UNIT(*) SI_UNIT(.MILLI.,.METRE.) );
#1052 = ( NAMED_UNIT(*) PLANE_ANGLE_UNIT() SI_UNIT($,.RADIAN.) );
#1053 = ( NAMED_UNIT(*) SI_UNIT($,.STERADIAN.) SOLID_ANGLE_UNIT() );
#1054 = UNCERTAINTY_MEASURE_WITH_UNIT(LENGTH_MEASURE(5.E-06),#1051,
  'distance_accuracy_value','confusion accuracy');
#1055 = PRODUCT_RELATED_PRODUCT_CATEGORY('part',$,(#7));
#1056 = MECHANICAL_DESIGN_GEOMETRIC_PRESENTATION_REPRESENTATION('',(
    #1057),#1050);
#1057 = STYLED_ITEM('color',(#1058),#15);
#1058 = PRESENTATION_STYLE_ASSIGNMENT((#1059,#1065));
#1059 = SURFACE_STYLE_USAGE(.BOTH.,#1060);
#1060 = SURFACE_SIDE_STYLE('',(#1061));
#1061 = SURFACE_STYLE_FILL_AREA(#1062);
#1062 = FILL_AREA_STYLE('',(#1063));
#1063 = FILL_AREA_STYLE_COLOUR('',#1064);
#1064 = COLOUR_RGB('',0.384313730969,0.447058818107,0.643137266454);
#1065 = CURVE_STYLE('',#1066,POSITIVE_LENGTH_MEASURE(0.1),#1067);
#1066 = DRAUGHTING_PRE_DEFINED_CURVE_FONT('continuous');
#1067 = COLOUR_RGB('',9.803921802644E-02,9.803921802644E-02,
  9.803921802644E-02);
ENDSEC;
END-ISO-10303-21;
